<svg fill="#32bdc1" height="64px" width="64px" version="1.1" id="Layer_1" xmlns="http://www.w3.org/2000/svg" xmlns:xlink="http://www.w3.org/1999/xlink" viewBox="0 0 512 512" xml:space="preserve"><g id="SVGRepo_bgCarrier" stroke-width="0"></g><g id="SVGRepo_tracerCarrier" stroke-linecap="round" stroke-linejoin="round"></g><g id="SVGRepo_iconCarrier"> <g transform="translate(1 1)"> <g> <g> <path d="M58.733,24.6C39.96,24.6,24.6,39.96,24.6,58.733s15.36,34.133,34.133,34.133s34.133-15.36,34.133-34.133 S77.507,24.6,58.733,24.6z M58.733,75.8c-9.387,0-17.067-7.68-17.067-17.067s7.68-17.067,17.067-17.067S75.8,49.347,75.8,58.733 S68.12,75.8,58.733,75.8z"></path> <path d="M135.533,24.6c-18.773,0-34.133,15.36-34.133,34.133s15.36,34.133,34.133,34.133c18.773,0,34.133-15.36,34.133-34.133 S154.307,24.6,135.533,24.6z M135.533,75.8c-9.387,0-17.067-7.68-17.067-17.067s7.68-17.067,17.067-17.067 s17.067,7.68,17.067,17.067S144.92,75.8,135.533,75.8z"></path> <path d="M75.8,323.267c18.773,0,34.133-15.36,34.133-34.133c0-15.83-10.921-29.232-25.6-33.046v-18.154h102.4v18.154 c-14.679,3.814-25.6,17.216-25.6,33.046c0,18.773,15.36,34.133,34.133,34.133c18.773,0,34.133-15.36,34.133-34.133 c0-15.83-10.921-29.232-25.6-33.046V229.4c0-5.12-3.413-8.533-8.533-8.533h-51.2v-18.154c14.679-3.814,25.6-17.216,25.6-33.046 c0-18.773-15.36-34.133-34.133-34.133c-18.773,0-34.133,15.36-34.133,34.133c0,15.829,10.921,29.232,25.6,33.046v18.154H75.8 c-5.12,0-8.533,3.413-8.533,8.533v26.688c-14.679,3.814-25.6,17.216-25.6,33.046C41.667,307.907,57.027,323.267,75.8,323.267z M118.467,169.667c0-9.387,7.68-17.067,17.067-17.067s17.067,7.68,17.067,17.067s-7.68,17.067-17.067,17.067 S118.467,179.053,118.467,169.667z M212.333,289.133c0,9.387-7.68,17.067-17.067,17.067s-17.067-7.68-17.067-17.067 s7.68-17.067,17.067-17.067S212.333,279.747,212.333,289.133z M75.8,272.067c9.387,0,17.067,7.68,17.067,17.067 S85.187,306.2,75.8,306.2s-17.067-7.68-17.067-17.067S66.413,272.067,75.8,272.067z"></path> <path d="M212.333,24.6c-18.773,0-34.133,15.36-34.133,34.133s15.36,34.133,34.133,34.133c18.773,0,34.133-15.36,34.133-34.133 S231.107,24.6,212.333,24.6z M212.333,75.8c-9.387,0-17.067-7.68-17.067-17.067s7.68-17.067,17.067-17.067 c9.387,0,17.067,7.68,17.067,17.067S221.72,75.8,212.333,75.8z"></path> <path d="M487.107-1H23.747C10.093-1-1,10.093-1,23.747V101.4v17.067v221.867v143.36v3.413C-1,500.76,9.24,511,22.893,511h3.413 h220.16h17.067h220.16h3.413C500.76,511,511,500.76,511,487.107v-3.413v-143.36V118.467V101.4V23.747 C511,10.093,499.907-1,487.107-1z M26.307,493.933c-5.973,0-10.24-4.267-10.24-10.24V357.4h230.4v136.533H26.307z M263.533,493.933V357.4h230.4v126.293c0,5.973-4.267,10.24-10.24,10.24H263.533z M493.933,340.333h-230.4h-17.067h-230.4 V118.467h477.867V340.333z M16.067,101.4V23.747c0-4.267,3.413-7.68,7.68-7.68h462.507c4.267,0,7.68,3.413,7.68,7.68V101.4 H16.067z"></path> <path d="M50.2,400.067h110.933c5.12,0,8.533-3.413,8.533-8.533c0-5.12-3.413-8.533-8.533-8.533H50.2 c-5.12,0-8.533,3.413-8.533,8.533C41.667,396.653,45.08,400.067,50.2,400.067z"></path> <path d="M212.333,383h-17.067c-5.12,0-8.533,3.413-8.533,8.533c0,5.12,3.413,8.533,8.533,8.533h17.067 c5.12,0,8.533-3.413,8.533-8.533C220.867,386.413,217.453,383,212.333,383z"></path> <path d="M212.333,417.133h-42.667c-5.12,0-8.533,3.413-8.533,8.533s3.413,8.533,8.533,8.533h42.667 c5.12,0,8.533-3.413,8.533-8.533S217.453,417.133,212.333,417.133z"></path> <path d="M50.2,434.2h8.533c5.12,0,8.533-3.413,8.533-8.533s-3.413-8.533-8.533-8.533H50.2c-5.12,0-8.533,3.413-8.533,8.533 S45.08,434.2,50.2,434.2z"></path> <path d="M135.533,417.133H101.4c-5.12,0-8.533,3.413-8.533,8.533s3.413,8.533,8.533,8.533h34.133c5.12,0,8.533-3.413,8.533-8.533 S140.653,417.133,135.533,417.133z"></path> <path d="M67.267,451.267H50.2c-5.12,0-8.533,3.413-8.533,8.533c0,5.12,3.413,8.533,8.533,8.533h17.067 c5.12,0,8.533-3.413,8.533-8.533C75.8,454.68,72.387,451.267,67.267,451.267z"></path> <path d="M118.467,451.267H101.4c-5.12,0-8.533,3.413-8.533,8.533c0,5.12,3.413,8.533,8.533,8.533h17.067 c5.12,0,8.533-3.413,8.533-8.533C127,454.68,123.587,451.267,118.467,451.267z"></path> <path d="M212.333,451.267H152.6c-5.12,0-8.533,3.413-8.533,8.533c0,5.12,3.413,8.533,8.533,8.533h59.733 c5.12,0,8.533-3.413,8.533-8.533C220.867,454.68,217.453,451.267,212.333,451.267z"></path> <path d="M459.8,383H348.867c-5.12,0-8.533,3.413-8.533,8.533c0,5.12,3.413,8.533,8.533,8.533H459.8 c5.12,0,8.533-3.413,8.533-8.533C468.333,386.413,464.92,383,459.8,383z"></path> <path d="M297.667,400.067h17.067c5.12,0,8.533-3.413,8.533-8.533c0-5.12-3.413-8.533-8.533-8.533h-17.067 c-5.12,0-8.533,3.413-8.533,8.533C289.133,396.653,292.547,400.067,297.667,400.067z"></path> <path d="M297.667,434.2h42.667c5.12,0,8.533-3.413,8.533-8.533s-3.413-8.533-8.533-8.533h-42.667 c-5.12,0-8.533,3.413-8.533,8.533S292.547,434.2,297.667,434.2z"></path> <path d="M459.8,417.133h-8.533c-5.12,0-8.533,3.413-8.533,8.533s3.413,8.533,8.533,8.533h8.533c5.12,0,8.533-3.413,8.533-8.533 S464.92,417.133,459.8,417.133z"></path> <path d="M408.6,417.133h-34.133c-5.12,0-8.533,3.413-8.533,8.533s3.413,8.533,8.533,8.533H408.6c5.12,0,8.533-3.413,8.533-8.533 S413.72,417.133,408.6,417.133z"></path> <path d="M459.8,451.267h-17.067c-5.12,0-8.533,3.413-8.533,8.533c0,5.12,3.413,8.533,8.533,8.533H459.8 c5.12,0,8.533-3.413,8.533-8.533C468.333,454.68,464.92,451.267,459.8,451.267z"></path> <path d="M408.6,451.267h-17.067c-5.12,0-8.533,3.413-8.533,8.533c0,5.12,3.413,8.533,8.533,8.533H408.6 c5.12,0,8.533-3.413,8.533-8.533C417.133,454.68,413.72,451.267,408.6,451.267z"></path> <path d="M357.4,451.267h-59.733c-5.12,0-8.533,3.413-8.533,8.533c0,5.12,3.413,8.533,8.533,8.533H357.4 c5.12,0,8.533-3.413,8.533-8.533C365.933,454.68,362.52,451.267,357.4,451.267z"></path> <path d="M280.6,178.2h120.554c3.814,14.679,17.216,25.6,33.046,25.6c18.773,0,34.133-15.36,34.133-34.133 c0-18.773-15.36-34.133-34.133-34.133c-15.83,0-29.232,10.921-33.046,25.6H280.6c-5.12,0-8.533,3.413-8.533,8.533 S275.48,178.2,280.6,178.2z M434.2,152.6c9.387,0,17.067,7.68,17.067,17.067s-7.68,17.067-17.067,17.067 s-17.067-7.68-17.067-17.067S424.813,152.6,434.2,152.6z"></path> <path d="M280.6,297.667h60.821c3.814,14.679,17.216,25.6,33.046,25.6c15.83,0,29.232-10.921,33.046-25.6H459.8 c5.12,0,8.533-3.413,8.533-8.533s-3.413-8.533-8.533-8.533h-52.288c-3.814-14.679-17.216-25.6-33.046-25.6 c-15.83,0-29.232,10.921-33.046,25.6H280.6c-5.12,0-8.533,3.413-8.533,8.533S275.48,297.667,280.6,297.667z M374.467,272.067 c9.387,0,17.067,7.68,17.067,17.067s-7.68,17.067-17.067,17.067s-17.067-7.68-17.067-17.067S365.08,272.067,374.467,272.067z"></path> </g> </g> </g> </g></svg>