<svg version="1.1" id="Layer_1" xmlns="http://www.w3.org/2000/svg" xmlns:xlink="http://www.w3.org/1999/xlink" viewBox="0 0 512 512" xml:space="preserve" fill="#32bdc1" stroke="#32bdc1"><g id="SVGRepo_bgCarrier" stroke-width="0"></g><g id="SVGRepo_tracerCarrier" stroke-linecap="round" stroke-linejoin="round"></g><g id="SVGRepo_iconCarrier"> <rect y="57.332" width="512" height="397.336"></rect> <circle style="fill:#f3f4f6;" cx="44.192" cy="89.38" r="8.928"></circle> <g style="opacity:0.7;"> <circle style="fill:#2a2b72;" cx="70.968" cy="89.38" r="8.928"></circle> </g> <g> <circle style="fill:#2ca17a;" cx="97.736" cy="89.38" r="8.928"></circle> <polygon style="fill:#2ca17a;" points="443.52,105.06 155.96,105.06 175.08,73.716 462.656,73.716 "></polygon> </g> <g> <path style="fill:#2a2b72;" d="M195.2,82.396l1.856,7.128c0.408,1.56,0.8,3.008,1.048,4.456h0.096c0.312-1.416,0.8-2.92,1.24-4.424 l2.296-7.16h2.144l2.168,7.008c0.52,1.672,0.928,3.16,1.248,4.576h0.088c0.28-1.536,0.64-3.048,1.08-4.544l2.008-7.04h2.52 l-4.52,14.016h-2.312l-2.144-6.688c-0.488-1.6-0.896-2.952-1.248-4.616h-0.056c-0.336,1.568-0.76,3.12-1.28,4.64l-2.264,6.664 h-2.312l-4.224-14.016H195.2z"></path> <path style="fill:#2a2b72;" d="M216.856,82.396l1.856,7.128c0.408,1.56,0.8,3.008,1.048,4.456h0.088 c0.32-1.416,0.8-2.92,1.248-4.424l2.28-7.16h2.144l2.176,7.008c0.52,1.672,0.928,3.16,1.24,4.576h0.096 c0.272-1.536,0.632-3.056,1.08-4.544l2.008-7.04h2.52l-4.52,14.016h-2.328l-2.144-6.688c-0.496-1.512-0.912-3.056-1.24-4.616 h-0.064c-0.328,1.568-0.752,3.12-1.272,4.64l-2.264,6.664h-2.328l-4.232-14.016H216.856z"></path> <path style="fill:#2a2b72;" d="M238.488,82.396l1.856,7.128c0.408,1.56,0.8,3.008,1.048,4.456h0.088 c0.32-1.416,0.8-2.92,1.248-4.424l2.28-7.16h2.144l2.176,7.008c0.52,1.672,0.928,3.16,1.24,4.576h0.096 c0.272-1.536,0.632-3.056,1.08-4.544l2.008-7.04h2.52l-4.52,14.016h-2.328l-2.152-6.688c-0.496-1.512-0.912-3.056-1.24-4.616 h-0.064c-0.328,1.568-0.752,3.12-1.272,4.64l-2.264,6.664h-2.328l-4.232-14.016H238.488z"></path> </g> <g> <polygon style="fill:#2ca17a;" points="0,423.58 82.856,423.58 113.944,454.66 0,454.66 "></polygon> <polygon style="fill:#2ca17a;" points="512,423.58 429.144,423.58 398.056,454.66 512,454.66 "></polygon> </g> <polygon style="fill:#f3f4f6;" points="301.76,337.932 198.832,235.716 107.912,325.044 96.696,313.636 198.896,213.22 301.576,315.196 395.512,218.884 406.968,230.052 "></polygon> <circle style="fill:#2a2b72;" cx="96.72" cy="326.564" r="35.632"></circle> <circle cx="96.72" cy="326.564" r="15.68"></circle> <circle style="fill:#2a2b72;" cx="301.672" cy="326.564" r="35.632"></circle> <circle cx="301.672" cy="326.564" r="15.68"></circle> <circle style="fill:#2a2b72;" cx="198.864" cy="224.476" r="49.688"></circle> <circle cx="198.864" cy="224.476" r="21.864"></circle> <circle style="fill:#2a2b72;" cx="401.28" cy="224.476" r="49.688"></circle> <circle cx="401.28" cy="224.476" r="21.864"></circle> </g></svg>