<svg fill="#32bdc1" height="64px" width="64px" version="1.1" id="Layer_1" xmlns="http://www.w3.org/2000/svg" xmlns:xlink="http://www.w3.org/1999/xlink" viewBox="0 0 512 512" xml:space="preserve"><g id="SVGRepo_bgCarrier" stroke-width="0"></g><g id="SVGRepo_tracerCarrier" stroke-linecap="round" stroke-linejoin="round"></g><g id="SVGRepo_iconCarrier"> <g transform="translate(1 1)"> <g> <g> <path d="M289.133,41.667c5.12,0,8.533-3.413,8.533-8.533c0-5.12-3.413-8.533-8.533-8.533s-8.533,3.413-8.533,8.533 C280.6,38.253,284.013,41.667,289.133,41.667z"></path> <path d="M289.133,92.867c5.12,0,8.533-3.413,8.533-8.533c0-5.12-3.413-8.533-8.533-8.533s-8.533,3.413-8.533,8.533 C280.6,89.453,284.013,92.867,289.133,92.867z"></path> <path d="M340.333,75.8c-5.12,0-8.533,3.413-8.533,8.533c0,5.12,3.413,8.533,8.533,8.533c5.12,0,8.533-3.413,8.533-8.533 C348.867,79.213,345.453,75.8,340.333,75.8z"></path> <path d="M314.733,50.2c-5.12,0-8.533,3.413-8.533,8.533s3.413,8.533,8.533,8.533s8.533-3.413,8.533-8.533 S319.853,50.2,314.733,50.2z"></path> <path d="M289.133,144.067c5.12,0,8.533-3.413,8.533-8.533S294.253,127,289.133,127s-8.533,3.413-8.533,8.533 S284.013,144.067,289.133,144.067z"></path> <path d="M340.333,127c-5.12,0-8.533,3.413-8.533,8.533s3.413,8.533,8.533,8.533c5.12,0,8.533-3.413,8.533-8.533 S345.453,127,340.333,127z"></path> <path d="M314.733,101.4c-5.12,0-8.533,3.413-8.533,8.533s3.413,8.533,8.533,8.533s8.533-3.413,8.533-8.533 S319.853,101.4,314.733,101.4z"></path> <path d="M391.533,75.8c-5.12,0-8.533,3.413-8.533,8.533c0,5.12,3.413,8.533,8.533,8.533c5.12,0,8.533-3.413,8.533-8.533 C400.067,79.213,396.653,75.8,391.533,75.8z"></path> <path d="M391.533,127c-5.12,0-8.533,3.413-8.533,8.533s3.413,8.533,8.533,8.533c5.12,0,8.533-3.413,8.533-8.533 S396.653,127,391.533,127z"></path> <path d="M365.933,101.4c-5.12,0-8.533,3.413-8.533,8.533s3.413,8.533,8.533,8.533s8.533-3.413,8.533-8.533 S371.053,101.4,365.933,101.4z"></path> <path d="M365.933,152.6c-5.12,0-8.533,3.413-8.533,8.533s3.413,8.533,8.533,8.533s8.533-3.413,8.533-8.533 S371.053,152.6,365.933,152.6z"></path> <path d="M365.933,203.8c-5.12,0-8.533,3.413-8.533,8.533c0,5.12,3.413,8.533,8.533,8.533s8.533-3.413,8.533-8.533 C374.467,207.213,371.053,203.8,365.933,203.8z"></path> <path d="M340.333,178.2c-5.12,0-8.533,3.413-8.533,8.533s3.413,8.533,8.533,8.533c5.12,0,8.533-3.413,8.533-8.533 S345.453,178.2,340.333,178.2z"></path> <path d="M314.733,152.6c-5.12,0-8.533,3.413-8.533,8.533s3.413,8.533,8.533,8.533s8.533-3.413,8.533-8.533 S319.853,152.6,314.733,152.6z"></path> <path d="M289.133,195.267c5.12,0,8.533-3.413,8.533-8.533s-3.413-8.533-8.533-8.533s-8.533,3.413-8.533,8.533 S284.013,195.267,289.133,195.267z"></path> <path d="M417.133,152.6c-5.12,0-8.533,3.413-8.533,8.533s3.413,8.533,8.533,8.533s8.533-3.413,8.533-8.533 S422.253,152.6,417.133,152.6z"></path> <path d="M417.133,203.8c-5.12,0-8.533,3.413-8.533,8.533c0,5.12,3.413,8.533,8.533,8.533s8.533-3.413,8.533-8.533 C425.667,207.213,422.253,203.8,417.133,203.8z"></path> <path d="M391.533,178.2c-5.12,0-8.533,3.413-8.533,8.533s3.413,8.533,8.533,8.533c5.12,0,8.533-3.413,8.533-8.533 S396.653,178.2,391.533,178.2z"></path> <path d="M442.733,178.2c-5.12,0-8.533,3.413-8.533,8.533s3.413,8.533,8.533,8.533s8.533-3.413,8.533-8.533 S447.853,178.2,442.733,178.2z"></path> <path d="M417.133,101.4c-5.12,0-8.533,3.413-8.533,8.533s3.413,8.533,8.533,8.533s8.533-3.413,8.533-8.533 S422.253,101.4,417.133,101.4z"></path> <path d="M442.733,127c-5.12,0-8.533,3.413-8.533,8.533s3.413,8.533,8.533,8.533s8.533-3.413,8.533-8.533S447.853,127,442.733,127 z"></path> <path d="M468.333,203.8c-5.12,0-8.533,3.413-8.533,8.533c0,5.12,3.413,8.533,8.533,8.533s8.533-3.413,8.533-8.533 C476.867,207.213,473.453,203.8,468.333,203.8z"></path> <path d="M314.733,203.8c-5.12,0-8.533,3.413-8.533,8.533c0,5.12,3.413,8.533,8.533,8.533s8.533-3.413,8.533-8.533 C323.267,207.213,319.853,203.8,314.733,203.8z"></path> <path d="M365.933,50.2c-5.12,0-8.533,3.413-8.533,8.533s3.413,8.533,8.533,8.533s8.533-3.413,8.533-8.533 S371.053,50.2,365.933,50.2z"></path> <path d="M237.933,263.533H7.533c-2.56,0-4.267,0.853-5.973,2.56C-0.147,268.653-1,270.36-1,272.92 c2.305,34.346,11.471,66.881,26.13,96.253c0.243,0.696,0.567,1.336,0.965,1.911C66.022,449.435,145.262,504.822,237.933,511 c2.56,0,4.267-0.853,5.973-2.56c1.707-1.707,2.56-3.413,2.56-5.973v-230.4C246.467,266.947,243.053,263.533,237.933,263.533z M64.789,400.368c-6.3-8.23-12.076-16.879-17.283-25.901H229.4v25.6H67.267C66.386,400.067,65.56,400.175,64.789,400.368z M28.18,331.8H229.4v25.6H38.553C34.625,349.116,31.153,340.574,28.18,331.8z M229.4,280.6v34.133H24.6 c-0.507,0-0.992,0.043-1.465,0.108c-2.867-11.122-4.966-22.554-6.215-34.241H229.4z M78.862,417.133H229.4v25.6H109.933 c-1.059,0-2.04,0.154-2.939,0.431C96.938,435.242,87.525,426.539,78.862,417.133z M130.983,459.8H229.4v33.28 C193.649,489.259,160.262,477.573,130.983,459.8z"></path> <path d="M237.08-1C109.933,7.533,7.533,109.933-1,237.08c0,2.56,0.853,5.12,2.56,6.827s3.413,2.56,5.973,2.56h230.4 c5.12,0,8.533-3.413,8.533-8.533V7.533c0-2.56-0.853-4.267-2.56-5.973C241.347-0.147,239.64-1,237.08-1z M229.4,229.4H16.92 C28.867,117.613,117.613,28.867,229.4,16.92V229.4z"></path> <path d="M502.467,263.533h-230.4c-5.12,0-8.533,3.413-8.533,8.533v230.4c0,2.56,0.853,4.267,2.56,5.973 c1.707,1.707,3.413,2.56,5.973,2.56c128-8.533,230.4-110.933,238.933-238.08c0-2.56-0.853-5.12-2.56-6.827 C506.733,264.387,505.027,263.533,502.467,263.533z M280.6,493.08V280.6h212.48C481.133,392.387,392.387,481.133,280.6,493.08z"></path> <path d="M272.067,246.467h230.4c2.56,0,4.267-0.853,5.973-2.56c1.707-2.56,2.56-4.267,2.56-6.827 C502.467,109.933,400.067,7.533,272.92-1c-2.56,0-5.12,0.853-6.827,2.56s-2.56,3.413-2.56,5.973v230.4 C263.533,243.053,266.947,246.467,272.067,246.467z M280.6,186.733v-51.2v-51.2v-51.2V16.92 c18.126,1.937,35.642,5.905,52.327,11.652c-0.724,1.28-1.127,2.818-1.127,4.561c0,5.12,3.413,8.533,8.533,8.533 c4.591,0,7.801-2.75,8.417-7.008c54.111,23.066,97.984,65.458,122.969,118.52c-1.014-0.375-2.149-0.578-3.387-0.578 c-5.12,0-8.533,3.413-8.533,8.533s3.413,8.533,8.533,8.533c4.11,0,7.116-2.203,8.143-5.72 c8.458,20.538,14.151,42.509,16.603,65.453H280.6V186.733z"></path> </g> </g> </g> </g></svg>