<svg fill="#32bdc1" height="64px" width="64px" version="1.1" id="Layer_1" xmlns="http://www.w3.org/2000/svg" xmlns:xlink="http://www.w3.org/1999/xlink" viewBox="0 0 504.58 504.58" xml:space="preserve" stroke="#32bdc1"><g id="SVGRepo_bgCarrier" stroke-width="0"></g><g id="SVGRepo_tracerCarrier" stroke-linecap="round" stroke-linejoin="round"></g><g id="SVGRepo_iconCarrier"> <g transform="translate(1 1)"> <g> <g> <path d="M57.754,24.667c-18.466,0-33.574,15.108-33.574,33.574s15.108,33.574,33.574,33.574s33.574-15.108,33.574-33.574 S76.22,24.667,57.754,24.667z M57.754,75.028c-9.233,0-16.787-7.554-16.787-16.787s7.554-16.787,16.787-16.787 s16.787,7.554,16.787,16.787S66.987,75.028,57.754,75.028z"></path> <path d="M133.295,24.667c-18.466,0-33.574,15.108-33.574,33.574s15.108,33.574,33.574,33.574s33.574-15.108,33.574-33.574 S151.761,24.667,133.295,24.667z M133.295,75.028c-9.233,0-16.787-7.554-16.787-16.787s7.554-16.787,16.787-16.787 s16.787,7.554,16.787,16.787S142.528,75.028,133.295,75.028z"></path> <path d="M208.836,24.667c-18.466,0-33.574,15.108-33.574,33.574s15.108,33.574,33.574,33.574s33.574-15.108,33.574-33.574 S227.302,24.667,208.836,24.667z M208.836,75.028c-9.233,0-16.787-7.554-16.787-16.787s7.554-16.787,16.787-16.787 s16.787,7.554,16.787,16.787S218.069,75.028,208.836,75.028z"></path> <path d="M49.361,175.749h109.115c5.036,0,8.393-3.357,8.393-8.393s-3.357-8.393-8.393-8.393H49.361 c-5.036,0-8.393,3.357-8.393,8.393S44.325,175.749,49.361,175.749z"></path> <path d="M192.049,175.749h83.934c5.036,0,8.393-3.357,8.393-8.393s-3.357-8.393-8.393-8.393h-83.934 c-5.036,0-8.393,3.357-8.393,8.393S187.013,175.749,192.049,175.749z"></path> <path d="M309.557,175.749h16.787c5.036,0,8.393-3.357,8.393-8.393s-3.357-8.393-8.393-8.393h-16.787 c-5.036,0-8.393,3.357-8.393,8.393S304.521,175.749,309.557,175.749z"></path> <path d="M234.016,200.929c0,5.036,3.357,8.393,8.393,8.393h125.902c5.036,0,8.393-3.357,8.393-8.393s-3.357-8.393-8.393-8.393 H242.41C237.374,192.536,234.016,195.893,234.016,200.929z"></path> <path d="M217.229,200.929c0-5.036-3.357-8.393-8.393-8.393H91.328c-5.036,0-8.393,3.357-8.393,8.393s3.357,8.393,8.393,8.393 h117.508C213.872,209.323,217.229,205.966,217.229,200.929z"></path> <path d="M49.361,209.323h8.393c5.036,0,8.393-3.357,8.393-8.393s-3.357-8.393-8.393-8.393h-8.393 c-5.036,0-8.393,3.357-8.393,8.393S44.325,209.323,49.361,209.323z"></path> <path d="M49.361,242.897h75.541c5.036,0,8.393-3.357,8.393-8.393s-3.357-8.393-8.393-8.393H49.361 c-5.036,0-8.393,3.357-8.393,8.393S44.325,242.897,49.361,242.897z"></path> <path d="M175.262,226.11h-16.787c-5.036,0-8.393,3.357-8.393,8.393s3.357,8.393,8.393,8.393h16.787 c5.036,0,8.393-3.357,8.393-8.393S180.298,226.11,175.262,226.11z"></path> <path d="M326.344,226.11H208.836c-5.036,0-8.393,3.357-8.393,8.393s3.357,8.393,8.393,8.393h117.508 c5.036,0,8.393-3.357,8.393-8.393S331.38,226.11,326.344,226.11z"></path> <path d="M49.361,276.47h109.115c5.036,0,8.393-3.357,8.393-8.393s-3.357-8.393-8.393-8.393H49.361 c-5.036,0-8.393,3.357-8.393,8.393S44.325,276.47,49.361,276.47z"></path> <path d="M275.984,259.684h-83.934c-5.036,0-8.393,3.357-8.393,8.393s3.357,8.393,8.393,8.393h83.934 c5.036,0,8.393-3.357,8.393-8.393S281.02,259.684,275.984,259.684z"></path> <path d="M275.984,293.257H242.41c-5.036,0-8.393,3.357-8.393,8.393s3.357,8.393,8.393,8.393h33.574 c5.036,0,8.393-3.357,8.393-8.393S281.02,293.257,275.984,293.257z"></path> <path d="M217.229,301.651c0-5.036-3.357-8.393-8.393-8.393H91.328c-5.036,0-8.393,3.357-8.393,8.393s3.357,8.393,8.393,8.393 h117.508C213.872,310.044,217.229,306.687,217.229,301.651z"></path> <path d="M49.361,310.044h8.393c5.036,0,8.393-3.357,8.393-8.393s-3.357-8.393-8.393-8.393h-8.393 c-5.036,0-8.393,3.357-8.393,8.393S44.325,310.044,49.361,310.044z"></path> <path d="M49.361,343.618h75.541c5.036,0,8.393-3.357,8.393-8.393c0-5.036-3.357-8.393-8.393-8.393H49.361 c-5.036,0-8.393,3.357-8.393,8.393C40.967,340.261,44.325,343.618,49.361,343.618z"></path> <path d="M175.262,326.831h-16.787c-5.036,0-8.393,3.357-8.393,8.393c0,5.036,3.357,8.393,8.393,8.393h16.787 c5.036,0,8.393-3.357,8.393-8.393C183.656,330.188,180.298,326.831,175.262,326.831z"></path> <path d="M267.59,326.831h-58.754c-5.036,0-8.393,3.357-8.393,8.393c0,5.036,3.357,8.393,8.393,8.393h58.754 c5.036,0,8.393-3.357,8.393-8.393C275.984,330.188,272.626,326.831,267.59,326.831z"></path> <path d="M49.361,377.192h109.115c5.036,0,8.393-3.357,8.393-8.393s-3.357-8.393-8.393-8.393H49.361 c-5.036,0-8.393,3.357-8.393,8.393S44.325,377.192,49.361,377.192z"></path> <path d="M242.41,368.798c0-5.036-3.357-8.393-8.393-8.393h-41.967c-5.036,0-8.393,3.357-8.393,8.393s3.357,8.393,8.393,8.393 h41.967C239.052,377.192,242.41,373.834,242.41,368.798z"></path> <path d="M82.934,402.372c0,5.036,3.357,8.393,8.393,8.393h117.508c5.036,0,8.393-3.357,8.393-8.393 c0-5.036-3.357-8.393-8.393-8.393H91.328C86.292,393.979,82.934,397.336,82.934,402.372z"></path> <path d="M49.361,410.766h8.393c5.036,0,8.393-3.357,8.393-8.393c0-5.036-3.357-8.393-8.393-8.393h-8.393 c-5.036,0-8.393,3.357-8.393,8.393C40.967,407.408,44.325,410.766,49.361,410.766z"></path> <path d="M124.902,427.552H49.361c-5.036,0-8.393,3.357-8.393,8.393c0,5.036,3.357,8.393,8.393,8.393h75.541 c5.036,0,8.393-3.357,8.393-8.393C133.295,430.91,129.938,427.552,124.902,427.552z"></path> <path d="M175.262,427.552h-16.787c-5.036,0-8.393,3.357-8.393,8.393c0,5.036,3.357,8.393,8.393,8.393h16.787 c5.036,0,8.393-3.357,8.393-8.393C183.656,430.91,180.298,427.552,175.262,427.552z"></path> <path d="M250.803,427.552h-41.967c-5.036,0-8.393,3.357-8.393,8.393c0,5.036,3.357,8.393,8.393,8.393h41.967 c5.036,0,8.393-3.357,8.393-8.393C259.197,430.91,255.839,427.552,250.803,427.552z"></path> <path d="M503.446,368.798c-0.199-2.042-0.484-4.049-0.839-6.023V116.995v-8.393V23.828c0-13.43-10.911-24.341-23.502-24.341 H23.341C9.911-0.513-1,10.398-1,23.828v84.774v8.393v357.561c0,15.948,12.59,28.538,28.538,28.538h365.954 c0.149,0,0.294-0.01,0.441-0.017c0.133,0.005,0.265,0.017,0.398,0.017c2.518,0,5.036-0.839,6.715-2.518l68.826-60.433 c15.948-12.59,26.02-29.377,31.895-48.682C504.285,378.87,503.446,371.316,503.446,368.798z M15.787,23.828 c0-4.197,3.357-7.554,7.554-7.554h454.925c4.197,0,7.554,3.357,7.554,7.554v76.38H15.787V23.828z M27.538,486.306 c-6.715,0-11.751-5.036-11.751-11.751V116.995h470.872v212.354c-9.029-10.418-21.511-17.373-35.535-19.467 c-0.231-0.035-0.464-0.062-0.696-0.094c-0.717-0.099-1.435-0.195-2.159-0.268c-0.487-0.05-0.98-0.081-1.471-0.119 c-0.507-0.039-1.011-0.087-1.521-0.113c-1.028-0.053-2.062-0.083-3.104-0.083c-20.144,0-36.931,11.751-47.843,26.859 c-10.911-15.108-27.698-26.859-47.843-26.859c-31.895,0-57.915,25.18-61.272,59.593c-0.839,2.518-1.679,10.072,1.679,22.662 c4.197,18.466,15.108,35.253,30.216,48.682l53.718,46.164H27.538z M484.98,388.943c-3.357,15.108-12.59,28.538-25.18,39.449 l-64.63,56.236l-66.308-57.075c-12.59-10.911-21.823-24.341-25.18-39.449c-2.518-10.072-1.679-15.948-1.679-15.948 c0-0.21,0-0.367,0-0.472c0,0.105,0,0.262,0,0.472c2.518-21.823,18.466-44.485,44.485-44.485c10.808,0,20.462,5.179,27.96,12.501 c4.919,5.017,8.853,10.944,11.49,16.876c0.333,1.332,1.066,2.395,2.035,3.199c1.472,1.781,3.913,2.677,6.359,2.677 c3.357,0,5.875-1.679,7.554-5.036c6.715-15.108,21.823-30.216,40.289-30.216c20.69,0,35.003,14.333,41.267,31.598 c1.266,3.946,2.068,8.011,2.378,12.048c0,1.212,0.358,2.35,0.957,3.361C486.855,377.094,486.709,382.029,484.98,388.943z"></path> </g> </g> </g> </g></svg>