<svg fill="#32bdc1" height="64px" width="64px" version="1.1" id="Layer_1" xmlns="http://www.w3.org/2000/svg" xmlns:xlink="http://www.w3.org/1999/xlink" viewBox="0 0 512 512" xml:space="preserve"><g id="SVGRepo_bgCarrier" stroke-width="0"></g><g id="SVGRepo_tracerCarrier" stroke-linecap="round" stroke-linejoin="round"></g><g id="SVGRepo_iconCarrier"> <g transform="translate(1 1)"> <g> <g> <path d="M451.267,375.023V357.4c0-46.933-38.4-85.333-85.333-85.333h-102.4v-51.2H472.6c11.947,0,21.333-9.387,21.333-22.187 V20.333C493.933,8.387,484.547-1,471.747-1H37.4C25.453-1,16.067,8.387,16.067,20.333v179.2c0,11.947,9.387,21.333,21.333,21.333 h209.067v51.2h-102.4c-46.933,0-85.333,38.4-85.333,85.333v17.623C25.178,379.258-1,408.077-1,442.733 C-1,480.28,29.72,511,67.267,511s68.267-30.72,68.267-68.267c0-34.656-26.178-63.475-59.733-67.71V357.4 c0-37.547,30.72-68.267,68.267-68.267h102.4v85.89c-33.555,4.235-59.733,33.054-59.733,67.71C186.733,480.28,217.453,511,255,511 c37.547,0,68.267-30.72,68.267-68.267c0-34.656-26.178-63.475-59.733-67.71v-85.89h102.4c37.547,0,68.267,30.72,68.267,68.267 v17.623c-33.555,4.235-59.733,33.054-59.733,67.71c0,37.547,30.72,68.267,68.267,68.267S511,480.28,511,442.733 C511,408.077,484.822,379.258,451.267,375.023z M33.133,198.68V20.333c0-2.56,1.707-4.267,4.267-4.267h435.2 c2.56,0,4.267,1.707,3.413,4.267v179.2c0,2.56-1.707,4.267-4.267,4.267H37.4C34.84,203.8,33.133,202.093,33.133,198.68z M118.467,442.733c0,28.16-23.04,51.2-51.2,51.2c-28.16,0-51.2-23.04-51.2-51.2c0-28.16,23.04-51.2,51.2-51.2 C95.427,391.533,118.467,414.573,118.467,442.733z M306.2,442.733c0,28.16-23.04,51.2-51.2,51.2c-28.16,0-51.2-23.04-51.2-51.2 c0-28.16,23.04-51.2,51.2-51.2C283.16,391.533,306.2,414.573,306.2,442.733z M442.733,493.933c-28.16,0-51.2-23.04-51.2-51.2 c0-28.16,23.04-51.2,51.2-51.2c28.16,0,51.2,23.04,51.2,51.2C493.933,470.893,470.893,493.933,442.733,493.933z"></path> <path d="M67.267,67.267H178.2c5.12,0,8.533-3.413,8.533-8.533S183.32,50.2,178.2,50.2H67.267c-5.12,0-8.533,3.413-8.533,8.533 S62.147,67.267,67.267,67.267z"></path> <path d="M212.333,67.267H255c5.12,0,8.533-3.413,8.533-8.533S260.12,50.2,255,50.2h-42.667c-5.12,0-8.533,3.413-8.533,8.533 S207.213,67.267,212.333,67.267z"></path> <path d="M237.933,92.867c0-5.12-3.413-8.533-8.533-8.533H109.933c-5.12,0-8.533,3.413-8.533,8.533 c0,5.12,3.413,8.533,8.533,8.533H229.4C234.52,101.4,237.933,97.987,237.933,92.867z"></path> <path d="M67.267,101.4H75.8c5.12,0,8.533-3.413,8.533-8.533c0-5.12-3.413-8.533-8.533-8.533h-8.533 c-5.12,0-8.533,3.413-8.533,8.533C58.733,97.987,62.147,101.4,67.267,101.4z"></path> <path d="M289.133,84.333h-25.6c-5.12,0-8.533,3.413-8.533,8.533c0,5.12,3.413,8.533,8.533,8.533h25.6 c5.12,0,8.533-3.413,8.533-8.533C297.667,87.747,294.253,84.333,289.133,84.333z"></path> <path d="M67.267,135.533h76.8c5.12,0,8.533-3.413,8.533-8.533s-3.413-8.533-8.533-8.533h-76.8c-5.12,0-8.533,3.413-8.533,8.533 S62.147,135.533,67.267,135.533z"></path> <path d="M178.2,118.467c-5.12,0-8.533,3.413-8.533,8.533s3.413,8.533,8.533,8.533h17.067c5.12,0,8.533-3.413,8.533-8.533 s-3.413-8.533-8.533-8.533H178.2z"></path> <path d="M246.467,118.467H229.4c-5.12,0-8.533,3.413-8.533,8.533s3.413,8.533,8.533,8.533h17.067c5.12,0,8.533-3.413,8.533-8.533 S251.587,118.467,246.467,118.467z"></path> <path d="M289.133,67.267h102.4c5.12,0,8.533-3.413,8.533-8.533s-3.413-8.533-8.533-8.533h-102.4c-5.12,0-8.533,3.413-8.533,8.533 S284.013,67.267,289.133,67.267z"></path> <path d="M442.733,50.2h-17.067c-5.12,0-8.533,3.413-8.533,8.533s3.413,8.533,8.533,8.533h17.067c5.12,0,8.533-3.413,8.533-8.533 S447.853,50.2,442.733,50.2z"></path> <path d="M442.733,84.333H323.267c-5.12,0-8.533,3.413-8.533,8.533c0,5.12,3.413,8.533,8.533,8.533h119.467 c5.12,0,8.533-3.413,8.533-8.533C451.267,87.747,447.853,84.333,442.733,84.333z"></path> <path d="M229.4,152.6H109.933c-5.12,0-8.533,3.413-8.533,8.533s3.413,8.533,8.533,8.533H229.4c5.12,0,8.533-3.413,8.533-8.533 S234.52,152.6,229.4,152.6z"></path> <path d="M75.8,152.6h-8.533c-5.12,0-8.533,3.413-8.533,8.533s3.413,8.533,8.533,8.533H75.8c5.12,0,8.533-3.413,8.533-8.533 S80.92,152.6,75.8,152.6z"></path> <path d="M289.133,152.6h-25.6c-5.12,0-8.533,3.413-8.533,8.533s3.413,8.533,8.533,8.533h25.6c5.12,0,8.533-3.413,8.533-8.533 S294.253,152.6,289.133,152.6z"></path> <path d="M442.733,152.6H323.267c-5.12,0-8.533,3.413-8.533,8.533s3.413,8.533,8.533,8.533h119.467 c5.12,0,8.533-3.413,8.533-8.533S447.853,152.6,442.733,152.6z"></path> <path d="M280.6,127c0,5.12,3.413,8.533,8.533,8.533h59.733c5.12,0,8.533-3.413,8.533-8.533s-3.413-8.533-8.533-8.533h-59.733 C284.013,118.467,280.6,121.88,280.6,127z"></path> <path d="M400.067,135.533c5.12,0,8.533-3.413,8.533-8.533s-3.413-8.533-8.533-8.533H383c-5.12,0-8.533,3.413-8.533,8.533 s3.413,8.533,8.533,8.533H400.067z"></path> <path d="M442.733,118.467H434.2c-5.12,0-8.533,3.413-8.533,8.533s3.413,8.533,8.533,8.533h8.533c5.12,0,8.533-3.413,8.533-8.533 S447.853,118.467,442.733,118.467z"></path> </g> </g> </g> </g></svg>